<svg width="262" height="262" viewBox="0 0 262 262" fill="none" xmlns="http://www.w3.org/2000/svg">
<path d="M124 239C187.513 239 239 187.513 239 124C239 60.4873 187.513 9 124 9C60.4872 9 9 60.4873 9 124C9 187.513 60.4872 239 124 239Z" fill="url(#paint0_linear_2513_11668)"/>
<g filter="url(#filter0_f_2513_11668)">
<path d="M131 208C173.526 208 208 173.526 208 131C208 88.4741 173.526 54 131 54C88.4741 54 54 88.4741 54 131C54 173.526 88.4741 208 131 208Z" fill="url(#paint1_linear_2513_11668)"/>
</g>
<path fill-rule="evenodd" clip-rule="evenodd" d="M48.0964 76.5801C50.0204 76.5801 51.5801 75.0204 51.5801 73.0964C51.5801 71.1725 50.0204 69.6128 48.0964 69.6128C46.1725 69.6128 44.6128 71.1725 44.6128 73.0964C44.6128 75.0204 46.1725 76.5801 48.0964 76.5801ZM48.0964 79.1929C51.4634 79.1929 54.1929 76.4634 54.1929 73.0964C54.1929 69.7295 51.4634 67 48.0964 67C44.7295 67 42 69.7295 42 73.0964C42 76.4634 44.7295 79.1929 48.0964 79.1929Z" fill="white"/>
<path fill-rule="evenodd" clip-rule="evenodd" d="M37.0964 184.58C39.0204 184.58 40.5801 183.02 40.5801 181.096C40.5801 179.172 39.0204 177.613 37.0964 177.613C35.1725 177.613 33.6128 179.172 33.6128 181.096C33.6128 183.02 35.1725 184.58 37.0964 184.58ZM37.0964 187.193C40.4634 187.193 43.1929 184.463 43.1929 181.096C43.1929 177.729 40.4634 175 37.0964 175C33.7295 175 31 177.729 31 181.096C31 184.463 33.7295 187.193 37.0964 187.193Z" fill="white"/>
<path fill-rule="evenodd" clip-rule="evenodd" d="M199.096 37.5801C201.02 37.5801 202.58 36.0204 202.58 34.0964C202.58 32.1725 201.02 30.6128 199.096 30.6128C197.172 30.6128 195.613 32.1725 195.613 34.0964C195.613 36.0204 197.172 37.5801 199.096 37.5801ZM199.096 40.1929C202.463 40.1929 205.193 37.4634 205.193 34.0964C205.193 30.7295 202.463 28 199.096 28C195.729 28 193 30.7295 193 34.0964C193 37.4634 195.729 40.1929 199.096 40.1929Z" fill="white"/>
<path d="M51.3908 28.1887C51.647 27.1272 53.1569 27.1272 53.4131 28.1887L54.2755 31.7613C54.3671 32.1406 54.6632 32.4368 55.0426 32.5284L58.6152 33.3908C59.6767 33.647 59.6767 35.1569 58.6152 35.4131L55.0426 36.2755C54.6632 36.3671 54.3671 36.6632 54.2755 37.0426L53.4131 40.6152C53.1569 41.6767 51.647 41.6767 51.3908 40.6152L50.5284 37.0426C50.4368 36.6632 50.1406 36.3671 49.7613 36.2755L46.1887 35.4131C45.1272 35.1569 45.1272 33.647 46.1887 33.3908L49.7613 32.5284C50.1406 32.4368 50.4368 32.1406 50.5284 31.7613L51.3908 28.1887Z" fill="white"/>
<path d="M212.294 64.5914C212.574 63.4279 214.229 63.4279 214.51 64.5914L215.456 68.5074C215.556 68.9232 215.881 69.2479 216.296 69.3483L220.212 70.2936C221.376 70.5744 221.376 72.2294 220.212 72.5103L216.296 73.4556C215.881 73.556 215.556 73.8806 215.456 74.2964L214.51 78.2125C214.229 79.376 212.574 79.376 212.294 78.2125L211.348 74.2964C211.248 73.8806 210.923 73.556 210.507 73.4556L206.591 72.5103C205.428 72.2294 205.428 70.5744 206.591 70.2936L210.507 69.3483C210.923 69.2479 211.248 68.9232 211.348 68.5074L212.294 64.5914Z" fill="url(#paint2_linear_2513_11668)"/>
<path d="M41.0312 207.238C42.3552 207.026 43.4122 208.326 42.9338 209.579L39.7048 218.034C39.2264 219.287 37.5714 219.552 36.7258 218.511L31.0179 211.487C30.1722 210.447 30.7702 208.881 32.0942 208.669L41.0312 207.238Z" fill="url(#paint3_linear_2513_11668)"/>
<path d="M196.978 188.007C196.647 186.707 197.846 185.537 199.137 185.899L207.851 188.348C209.141 188.711 209.556 190.335 208.596 191.271L202.119 197.593C201.159 198.53 199.546 198.076 199.214 196.777L196.978 188.007Z" fill="url(#paint4_linear_2513_11668)"/>
<g filter="url(#filter1_f_2513_11668)">
<path d="M185.026 212.466C185.026 218.636 155.757 223.637 119.653 223.637C83.549 223.637 54.2808 218.636 54.2808 212.466C54.2808 206.296 83.549 201.295 119.653 201.295C155.757 201.295 185.026 206.296 185.026 212.466Z" fill="url(#paint5_radial_2513_11668)"/>
</g>
<g filter="url(#filter2_i_2513_11668)">
<path d="M120.925 52.0908L78.3465 59.5985C74.9259 60.2017 72.6419 63.4636 73.245 66.8842L83.9761 127.743C84.5792 131.164 87.8412 133.448 91.2618 132.844L133.84 125.337C137.261 124.734 139.545 121.472 138.942 118.051L128.211 57.1923C127.607 53.7717 124.345 51.4876 120.925 52.0908Z" fill="url(#paint6_linear_2513_11668)"/>
</g>
<path d="M121.541 83.3752L88.4655 89.2074C87.3517 89.4038 86.608 90.4659 86.8044 91.5797L86.8056 91.5862C87.002 92.7 88.0641 93.4437 89.1778 93.2473L122.254 87.4151C123.367 87.2187 124.111 86.1566 123.915 85.0428L123.914 85.0363C123.717 83.9225 122.655 83.1788 121.541 83.3752Z" fill="url(#paint7_linear_2513_11668)"/>
<path d="M126.573 111.798L93.7814 117.58C92.6772 117.775 91.9363 118.807 92.1265 119.886L92.1276 119.893C92.3179 120.972 93.3673 121.689 94.4715 121.494L127.263 115.712C128.368 115.517 129.108 114.485 128.918 113.406L128.917 113.399C128.727 112.32 127.677 111.603 126.573 111.798Z" fill="url(#paint8_linear_2513_11668)"/>
<path d="M123.951 96.9264L91.1592 102.708C90.055 102.903 89.3141 103.935 89.5044 105.014L89.5055 105.021C89.6957 106.1 90.7451 106.817 91.8493 106.622L124.641 100.84C125.745 100.645 126.486 99.613 126.296 98.5339L126.295 98.5276C126.104 97.4486 125.055 96.7317 123.951 96.9264Z" fill="url(#paint9_linear_2513_11668)"/>
<path d="M96.848 66.0273L87.1824 67.7316C85.0413 68.1092 83.6117 70.1509 83.9892 72.2919L84.4622 74.9743C84.8397 77.1153 86.8814 78.5449 89.0225 78.1674L98.6881 76.4631C100.829 76.0856 102.259 74.0439 101.881 71.9028L101.408 69.2205C101.031 67.0794 98.989 65.6498 96.848 66.0273Z" fill="#A259FF"/>
<g filter="url(#filter3_i_2513_11668)">
<path d="M171.668 68.873H115.334C112.709 68.873 110.581 71.0011 110.581 73.6262V100.105C110.581 102.73 112.709 104.858 115.334 104.858H171.668C174.293 104.858 176.421 102.73 176.421 100.105V73.6262C176.421 71.0011 174.293 68.873 171.668 68.873Z" fill="url(#paint10_linear_2513_11668)"/>
</g>
<path d="M124.485 92.3256C127.503 92.3256 129.95 89.879 129.95 86.861C129.95 83.843 127.503 81.3965 124.485 81.3965C121.467 81.3965 119.021 83.843 119.021 86.861C119.021 89.879 121.467 92.3256 124.485 92.3256Z" fill="white"/>
<path d="M144.014 92.3256C147.032 92.3256 149.478 89.879 149.478 86.861C149.478 83.843 147.032 81.3965 144.014 81.3965C140.996 81.3965 138.549 83.843 138.549 86.861C138.549 89.879 140.996 92.3256 144.014 92.3256Z" fill="white"/>
<path d="M163.542 92.3256C166.56 92.3256 169.006 89.879 169.006 86.861C169.006 83.843 166.56 81.3965 163.542 81.3965C160.524 81.3965 158.077 83.843 158.077 86.861C158.077 89.879 160.524 92.3256 163.542 92.3256Z" fill="white"/>
<path fill-rule="evenodd" clip-rule="evenodd" d="M114.217 164.014C114.689 161.335 117.243 159.547 119.922 160.019L148.061 164.981C151.906 165.659 155.381 167.444 157.844 170.024C160.306 172.602 161.974 176.267 161.259 180.325C160.543 184.383 157.722 187.257 154.528 188.839C151.331 190.422 147.454 190.914 143.608 190.236L76.7461 178.446C74.0676 177.974 72.2791 175.419 72.7514 172.741C73.2237 170.062 75.7779 168.274 78.4565 168.746L145.319 180.536C147.313 180.887 149.03 180.571 150.157 180.013C151.285 179.454 151.517 178.856 151.559 178.615C151.601 178.375 151.589 177.736 150.721 176.826C149.853 175.917 148.347 175.033 146.351 174.681L118.096 168.716C115.418 168.244 113.744 166.692 114.217 164.014Z" fill="url(#paint11_linear_2513_11668)"/>
<path fill-rule="evenodd" clip-rule="evenodd" d="M168.569 113.876C169.627 111.603 172.081 110.325 174.55 110.76L196.61 114.65C199.622 115.181 201.634 118.053 201.103 121.066C200.571 124.078 197.699 126.089 194.687 125.558L176.814 122.406L166.256 145.069C164.965 147.842 161.67 149.042 158.897 147.751C156.125 146.459 154.924 143.164 156.216 140.392L168.569 113.876Z" fill="url(#paint12_linear_2513_11668)"/>
<path d="M89.9398 198.065C96.4654 199.216 102.688 194.858 103.839 188.333C104.989 181.807 100.632 175.585 94.1066 174.434C87.5811 173.283 81.3583 177.641 80.2077 184.166C79.0571 190.692 83.4143 196.914 89.9398 198.065Z" fill="url(#paint13_linear_2513_11668)"/>
<path d="M163.48 123.889L82.0566 109.532C75.953 108.456 70.5318 112.838 70.957 118.497L71.9738 151.522C72.2823 155.61 75.6185 159.059 80.0266 159.836L151.002 177.141L170.861 136.128C175.437 127.822 169.598 124.968 163.48 123.889Z" fill="url(#paint14_linear_2513_11668)"/>
<path d="M90.647 192.146C93.9253 192.724 97.0516 190.535 97.6297 187.257C98.2077 183.979 96.0187 180.852 92.7403 180.274C89.4619 179.696 86.3357 181.885 85.7576 185.164C85.1795 188.442 87.3686 191.568 90.647 192.146Z" fill="url(#paint15_linear_2513_11668)"/>
<mask id="mask0_2513_11668" style="mask-type:alpha" maskUnits="userSpaceOnUse" x="70" y="109" width="102" height="69">
<path d="M163.48 123.889L82.0562 109.532C75.9526 108.456 70.5314 112.838 70.9566 118.497L71.9734 151.522C72.2819 155.61 75.6181 159.059 80.0262 159.836L151.001 177.141L170.861 136.128C173.198 130.941 169.598 124.968 163.48 123.889Z" fill="url(#paint16_linear_2513_11668)"/>
</mask>
<g mask="url(#mask0_2513_11668)">
<path d="M124.084 145.666C124.437 143.796 126.24 142.562 128.111 142.907C129.981 143.253 131.211 145.049 130.858 146.918L126.197 171.571C125.844 173.44 124.041 174.675 122.171 174.329C120.3 173.984 119.07 172.188 119.423 170.319L124.084 145.666Z" fill="#A259FF"/>
<path d="M184.911 129.632C186.473 129.903 187.524 131.39 187.26 132.953L187.068 134.085C186.803 135.648 185.322 136.695 183.76 136.424L69.912 116.651C68.3502 116.379 67.2989 114.892 67.5638 113.33L67.7557 112.198C68.0206 110.635 69.5015 109.588 71.0633 109.859L184.911 129.632Z" fill="#A259FF"/>
<path d="M143.244 149.129C143.597 147.26 145.4 146.025 147.27 146.371C149.141 146.717 150.371 148.513 150.017 150.382L145.357 175.035C145.004 176.904 143.201 178.139 141.33 177.793C139.46 177.448 138.23 175.652 138.583 173.783L143.244 149.129Z" fill="#A259FF"/>
<path d="M104.927 142.204C105.28 140.335 107.083 139.1 108.953 139.445C110.824 139.791 112.054 141.587 111.7 143.456L107.04 168.109C106.687 169.978 104.884 171.213 103.013 170.868C101.143 170.522 99.9129 168.726 100.266 166.857L104.927 142.204Z" fill="#A259FF"/>
<path d="M85.5481 138.788C85.9015 136.919 87.7043 135.683 89.5748 136.028C91.4453 136.374 92.6753 138.17 92.3219 140.039L87.6615 164.692C87.3082 166.561 85.5054 167.797 83.6348 167.452C81.7643 167.106 80.5343 165.309 80.8877 163.441L85.5481 138.788Z" fill="#A259FF"/>
<path d="M68.7209 109.879C69.0788 107.849 71.0141 106.494 73.0435 106.852L172.543 124.396C174.572 124.754 175.927 126.69 175.569 128.719C175.211 130.749 173.276 132.104 171.247 131.746L71.7477 114.201C69.7182 113.844 68.3631 111.908 68.7209 109.879Z" fill="url(#paint17_linear_2513_11668)"/>
</g>
<defs>
<filter id="filter0_f_2513_11668" x="0" y="0" width="262" height="262" filterUnits="userSpaceOnUse" color-interpolation-filters="sRGB">
<feFlood flood-opacity="0" result="BackgroundImageFix"/>
<feBlend mode="normal" in="SourceGraphic" in2="BackgroundImageFix" result="shape"/>
<feGaussianBlur stdDeviation="27" result="effect1_foregroundBlur_2513_11668"/>
</filter>
<filter id="filter1_f_2513_11668" x="33.5934" y="180.608" width="172.12" height="63.7166" filterUnits="userSpaceOnUse" color-interpolation-filters="sRGB">
<feFlood flood-opacity="0" result="BackgroundImageFix"/>
<feBlend mode="normal" in="SourceGraphic" in2="BackgroundImageFix" result="shape"/>
<feGaussianBlur stdDeviation="10.3437" result="effect1_foregroundBlur_2513_11668"/>
</filter>
<filter id="filter2_i_2513_11668" x="73.1484" y="51.9941" width="68.2747" height="86.5112" filterUnits="userSpaceOnUse" color-interpolation-filters="sRGB">
<feFlood flood-opacity="0" result="BackgroundImageFix"/>
<feBlend mode="normal" in="SourceGraphic" in2="BackgroundImageFix" result="shape"/>
<feColorMatrix in="SourceAlpha" type="matrix" values="0 0 0 0 0 0 0 0 0 0 0 0 0 0 0 0 0 0 127 0" result="hardAlpha"/>
<feOffset dx="2.38455" dy="5.56394"/>
<feGaussianBlur stdDeviation="5.96137"/>
<feComposite in2="hardAlpha" operator="arithmetic" k2="-1" k3="1"/>
<feColorMatrix type="matrix" values="0 0 0 0 0.104618 0 0 0 0 0.465612 0 0 0 0 0.545833 0 0 0 0.15 0"/>
<feBlend mode="normal" in2="shape" result="effect1_innerShadow_2513_11668"/>
</filter>
<filter id="filter3_i_2513_11668" x="110.581" y="68.873" width="71.4657" height="39.7349" filterUnits="userSpaceOnUse" color-interpolation-filters="sRGB">
<feFlood flood-opacity="0" result="BackgroundImageFix"/>
<feBlend mode="normal" in="SourceGraphic" in2="BackgroundImageFix" result="shape"/>
<feColorMatrix in="SourceAlpha" type="matrix" values="0 0 0 0 0 0 0 0 0 0 0 0 0 0 0 0 0 0 127 0" result="hardAlpha"/>
<feOffset dx="5.62585" dy="3.75056"/>
<feGaussianBlur stdDeviation="6.09467"/>
<feComposite in2="hardAlpha" operator="arithmetic" k2="-1" k3="1"/>
<feColorMatrix type="matrix" values="0 0 0 0 0.104618 0 0 0 0 0.465612 0 0 0 0 0.545833 0 0 0 0.09 0"/>
<feBlend mode="normal" in2="shape" result="effect1_innerShadow_2513_11668"/>
</filter>
<linearGradient id="paint0_linear_2513_11668" x1="41.0834" y1="9.00003" x2="216.623" y2="45.541" gradientUnits="userSpaceOnUse">
<stop stop-color="#A259FF"/>
<stop offset="1" stop-color="#3B3B3B"/>
</linearGradient>
<linearGradient id="paint1_linear_2513_11668" x1="164" y1="193.333" x2="112.645" y2="187.479" gradientUnits="userSpaceOnUse">
<stop stop-color="#A259FF" stop-opacity="0"/>
<stop offset="1" stop-color="#FF6250"/>
</linearGradient>
<linearGradient id="paint2_linear_2513_11668" x1="216.687" y1="67.1335" x2="231.417" y2="78.7031" gradientUnits="userSpaceOnUse">
<stop stop-color="#A259FF"/>
<stop offset="1" stop-color="#377DF7"/>
</linearGradient>
<linearGradient id="paint3_linear_2513_11668" x1="42.3966" y1="211.526" x2="41.9045" y2="226.182" gradientUnits="userSpaceOnUse">
<stop stop-color="#A259FF"/>
<stop offset="1" stop-color="#377DF7"/>
</linearGradient>
<linearGradient id="paint4_linear_2513_11668" x1="201.125" y1="186.258" x2="215.765" y2="185.418" gradientUnits="userSpaceOnUse">
<stop stop-color="#A259FF"/>
<stop offset="1" stop-color="#377DF7"/>
</linearGradient>
<radialGradient id="paint5_radial_2513_11668" cx="0" cy="0" r="1" gradientUnits="userSpaceOnUse" gradientTransform="translate(119.653 212.466) rotate(90) scale(11.1712 65.3725)">
<stop stop-color="#2B2B2B"/>
<stop offset="1" stop-color="#2B2B2B" stop-opacity="0"/>
</radialGradient>
<linearGradient id="paint6_linear_2513_11668" x1="81.0521" y1="59.1214" x2="136.428" y2="57.4149" gradientUnits="userSpaceOnUse">
<stop stop-color="#A259FF"/>
<stop offset="1" stop-color="#3B3B3B"/>
</linearGradient>
<linearGradient id="paint7_linear_2513_11668" x1="116.571" y1="87.2388" x2="112.936" y2="76.4641" gradientUnits="userSpaceOnUse">
<stop stop-color="#A259FF"/>
<stop offset="0.666667" stop-color="white"/>
</linearGradient>
<linearGradient id="paint8_linear_2513_11668" x1="121.634" y1="115.563" x2="118.146" y2="105.107" gradientUnits="userSpaceOnUse">
<stop stop-color="#A259FF"/>
<stop offset="0.666667" stop-color="white"/>
</linearGradient>
<linearGradient id="paint9_linear_2513_11668" x1="119.011" y1="100.691" x2="115.523" y2="90.2354" gradientUnits="userSpaceOnUse">
<stop stop-color="#A259FF"/>
<stop offset="0.666667" stop-color="white"/>
</linearGradient>
<linearGradient id="paint10_linear_2513_11668" x1="110.581" y1="112.942" x2="151.096" y2="52.136" gradientUnits="userSpaceOnUse">
<stop stop-color="#A259FF"/>
<stop offset="1" stop-color="#FF6250"/>
</linearGradient>
<linearGradient id="paint11_linear_2513_11668" x1="142.685" y1="182.706" x2="128.795" y2="117.516" gradientUnits="userSpaceOnUse">
<stop stop-color="#A259FF"/>
<stop offset="0.666667" stop-color="white"/>
</linearGradient>
<linearGradient id="paint12_linear_2513_11668" x1="188.98" y1="122.181" x2="221.041" y2="159.498" gradientUnits="userSpaceOnUse">
<stop stop-color="#A259FF"/>
<stop offset="1" stop-color="#377DF7"/>
</linearGradient>
<linearGradient id="paint13_linear_2513_11668" x1="98.1593" y1="192.621" x2="70.7543" y2="164.621" gradientUnits="userSpaceOnUse">
<stop stop-color="#A259FF"/>
<stop offset="0.666667" stop-color="white"/>
</linearGradient>
<linearGradient id="paint14_linear_2513_11668" x1="146.325" y1="160.629" x2="91.2391" y2="50.8082" gradientUnits="userSpaceOnUse">
<stop stop-color="#A259FF"/>
<stop offset="0.666667" stop-color="white"/>
</linearGradient>
<linearGradient id="paint15_linear_2513_11668" x1="84.8781" y1="188.067" x2="101.982" y2="191.363" gradientUnits="userSpaceOnUse">
<stop stop-color="white"/>
<stop offset="1" stop-color="#BCF3FF"/>
</linearGradient>
<linearGradient id="paint16_linear_2513_11668" x1="70.241" y1="120.429" x2="171.084" y2="139.455" gradientUnits="userSpaceOnUse">
<stop stop-color="#AFF1FF"/>
<stop offset="1" stop-color="#65C8DE"/>
</linearGradient>
<linearGradient id="paint17_linear_2513_11668" x1="153.698" y1="126.508" x2="155.338" y2="105.744" gradientUnits="userSpaceOnUse">
<stop stop-color="#A259FF"/>
<stop offset="0.666667" stop-color="white"/>
</linearGradient>
</defs>
</svg>
